<svg width="41" height="41" fill="none" xmlns="http://www.w3.org/2000/svg"><path fill-rule="evenodd" clip-rule="evenodd" d="M24.417 7.334c-.5.5-.5 1.305-.5 2.916 0 1.61 0 2.416.5 2.916s1.306.5 2.916.5h3.417c1.61 0 2.416 0 2.916-.5s.5-1.305.5-2.916c0-1.61 0-2.416-.5-2.916s-1.305-.5-2.916-.5h-3.416c-1.611 0-2.416 0-2.917.5zm-17.083 20.5c-.5.5-.5 1.305-.5 2.916 0 1.61 0 2.416.5 2.916s1.306.5 2.916.5h3.417c1.61 0 2.416 0 2.916-.5s.5-1.305.5-2.916c0-1.61 0-2.416-.5-2.916s-1.305-.5-2.916-.5H10.25c-1.61 0-2.416 0-2.916.5zm16.583-3.917c0-1.611 0-2.416.5-2.917.5-.5 1.306-.5 2.916-.5h3.417c1.61 0 2.416 0 2.916.5s.5 1.306.5 2.917v6.833c0 1.61 0 2.416-.5 2.916s-1.305.5-2.916.5h-3.416c-1.611 0-2.416 0-2.917-.5-.5-.5-.5-1.305-.5-2.916v-6.833zM7.334 7.334c-.5.5-.5 1.305-.5 2.916v6.833c0 1.61 0 2.416.5 2.917.5.5 1.306.5 2.916.5h3.417c1.61 0 2.416 0 2.916-.5s.5-1.306.5-2.917V10.25c0-1.61 0-2.416-.5-2.916s-1.305-.5-2.916-.5H10.25c-1.61 0-2.416 0-2.916.5z" fill="#fff"/><path fill-rule="evenodd" clip-rule="evenodd" d="M8.24 8.24l.004-.003a1.206 1.206 0 01.302-.072c.36-.048.863-.05 1.704-.05h3.417c.841 0 1.344.002 1.704.05a1.205 1.205 0 01.302.072l.004.003.003.004a1.203 1.203 0 01.072.302c.047.36.05.862.05 1.704v6.833c0 .842-.002 1.344-.05 1.704a1.198 1.198 0 01-.072.302l-.003.005-.004.002a1.205 1.205 0 01-.302.072c-.36.048-.863.05-1.704.05H10.25c-.841 0-1.344-.002-1.704-.05a1.206 1.206 0 01-.302-.072l-.004-.002-.002-.005a1.202 1.202 0 01-.072-.302c-.049-.36-.051-.862-.051-1.704V10.25c0-.842.002-1.344.05-1.704a1.207 1.207 0 01.073-.302l.002-.004zm1.934-2.688h3.569c.74 0 1.418 0 1.97.074.606.082 1.248.274 1.776.802s.72 1.17.802 1.777c.074.551.074 1.23.074 1.969v6.986c0 .74 0 1.417-.074 1.969-.082.607-.274 1.249-.802 1.777-.528.528-1.17.72-1.777.801-.551.074-1.23.074-1.969.074h-3.569c-.74 0-1.418 0-1.97-.074-.606-.081-1.248-.273-1.776-.801s-.72-1.17-.802-1.777c-.074-.552-.074-1.23-.074-1.97v-6.985c0-.74 0-1.418.074-1.97.082-.606.274-1.248.802-1.776s1.17-.72 1.777-.802c.551-.074 1.23-.074 1.969-.074zm15.153 2.685l-.004.003-.002.004a1.2 1.2 0 00-.072.302c-.048.36-.05.862-.05 1.704s.002 1.344.05 1.704a1.2 1.2 0 00.072.302l.002.004.004.003a1.206 1.206 0 00.302.072c.36.048.863.05 1.705.05h3.416c.842 0 1.344-.002 1.704-.05a1.206 1.206 0 00.302-.072l.005-.003.002-.004a1.2 1.2 0 00.072-.302c.048-.36.05-.862.05-1.704s-.002-1.344-.05-1.704a1.2 1.2 0 00-.072-.302l-.002-.004-.005-.003a1.203 1.203 0 00-.302-.072c-.36-.048-.862-.05-1.704-.05h-3.416c-.842 0-1.344.002-1.704.05a1.203 1.203 0 00-.303.072zm1.93-2.685h3.57c.74 0 1.417 0 1.968.074.608.082 1.25.274 1.777.802.528.528.72 1.17.802 1.777.074.551.074 1.23.074 1.969v.152c0 .74 0 1.418-.074 1.97-.082.607-.274 1.248-.802 1.776s-1.17.72-1.777.802c-.551.074-1.229.074-1.969.074h-3.569c-.74 0-1.417 0-1.969-.074-.607-.082-1.249-.274-1.777-.802-.528-.528-.72-1.17-.801-1.777-.075-.551-.075-1.23-.074-1.969v-.152c0-.74 0-1.418.074-1.97.081-.606.273-1.248.801-1.776s1.17-.72 1.777-.802c.552-.074 1.23-.074 1.97-.074zm0 13.667h3.57c.74 0 1.417 0 1.968.074.608.081 1.25.273 1.777.802.528.527.72 1.17.802 1.777.074.55.074 1.229.074 1.968v6.986c0 .74 0 1.418-.074 1.97-.082.607-.274 1.248-.802 1.776s-1.17.72-1.777.802c-.551.074-1.229.074-1.969.074h-3.569c-.74 0-1.417 0-1.969-.074-.607-.082-1.249-.274-1.777-.802-.528-.528-.72-1.17-.801-1.777-.075-.551-.075-1.23-.074-1.969V23.84c0-.74 0-1.417.074-1.968.081-.608.273-1.25.801-1.777.528-.529 1.17-.72 1.777-.802.552-.074 1.23-.074 1.97-.074zm-1.93 2.685l-.004.002-.002.005a1.198 1.198 0 00-.072.302c-.048.36-.05.862-.05 1.704v6.833c0 .841.002 1.344.05 1.704a1.197 1.197 0 00.072.302l.002.004.004.003a1.202 1.202 0 00.302.072c.36.048.863.05 1.705.05h3.416c.842 0 1.344-.002 1.704-.05a1.202 1.202 0 00.302-.072l.005-.003.002-.004a1.197 1.197 0 00.072-.302c.048-.36.05-.863.05-1.704v-6.833c0-.842-.002-1.344-.05-1.704a1.198 1.198 0 00-.064-.285l-.005-.012-.003-.005-.002-.005-.005-.002-.017-.008a1.202 1.202 0 00-.285-.064c-.36-.048-.862-.05-1.704-.05h-3.416c-.842 0-1.344.002-1.704.05a1.202 1.202 0 00-.285.064l-.018.008zM8.244 28.737l-.004.003-.002.004a1.206 1.206 0 00-.072.302c-.049.36-.051.863-.051 1.704s.002 1.344.05 1.704a1.202 1.202 0 00.073.302l.002.004.004.003a1.204 1.204 0 00.302.072c.36.048.863.05 1.704.05h3.417c.841 0 1.344-.002 1.704-.05.165-.023.247-.049.284-.064l.011-.005.007-.003.004-.003.003-.004.002-.005.005-.012a1.2 1.2 0 00.064-.285c.049-.36.051-.863.051-1.704s-.002-1.344-.05-1.704a1.203 1.203 0 00-.072-.302l-.003-.004-.004-.003a1.2 1.2 0 00-.302-.072c-.36-.048-.863-.05-1.704-.05H10.25c-.841 0-1.344.002-1.704.05a1.2 1.2 0 00-.302.072zm1.93-2.685h3.57c.739 0 1.417 0 1.968.074.607.082 1.25.274 1.777.802.528.528.72 1.17.802 1.777.074.551.074 1.23.074 1.969v.152c0 .74 0 1.418-.074 1.97-.082.607-.274 1.248-.802 1.776s-1.17.72-1.777.802c-.551.074-1.23.074-1.969.074h-3.57c-.739 0-1.417 0-1.968-.074-.607-.082-1.25-.274-1.777-.802-.528-.528-.72-1.17-.802-1.777-.074-.551-.074-1.23-.074-1.969v-.152c0-.74 0-1.418.074-1.97.082-.607.274-1.248.802-1.776s1.17-.72 1.777-.802c.551-.074 1.23-.074 1.969-.074z" fill="#fff"/></svg>